<svg xmlns="http://www.w3.org/2000/svg" viewBox="0 0 32 32" style="enable-background:new 0 0 32 32;version:1"><style>.a{display:none;}.b{fill:#FFF;opacity:0.2;}.c{fill:none;}.d{fill:#FFF;}.e{stop-color:#FF2D76;}.f{stop-color:#FB0000;}</style><g class="a"><path d="M16 0C7.2 0 0 7.2 0 16c0 8.8 7.2 16 16 16s16-7.2 16-16C32 7.2 24.8 0 16 0L16 0z" fill="#00D09C"/><path d="M16 1.6C8.1 1.6 1.6 8.1 1.6 16c0 7.9 6.4 14.4 14.4 14.4S30.4 23.9 30.4 16C30.4 8.1 23.9 1.6 16 1.6L16 1.6z"/><path d="M16 1.6L16 1.6C8.1 1.6 1.6 8.1 1.6 16c0 7.9 6.4 14.4 14.4 14.4V1.6z" class="b"/></g><g class="a"><path d="M16.5 0.6c-8.4 0-15.2 6.8-15.2 15.2 0 8.4 6.8 15.2 15.2 15.2s15.2-6.8 15.2-15.2C31.7 7.4 24.9 0.6 16.5 0.6L16.5 0.6z"/><path d="M16.5 0.6c-8.4 0-15.2 6.8-15.2 15.2 0 8.4 6.8 15.2 15.2 15.2s15.2-6.8 15.2-15.2C31.7 7.4 24.9 0.6 16.5 0.6L16.5 0.6z" class="c"/><path d="M18.5 2.1c0.7 0 1.4 0.2 2 0.2 1.5 0.6 2.6 1.1 3.7 1.6 1.1 0.6 2.2 1.3 3.2 2.6 0.9 1.2 1.7 2.2 2.2 3.4 0.5 1.2 0.9 2.4 1 3.8 0.2 0.2 0.3 0.7 0.4 1.3 0.1 0.6 0 1.4-0.1 2.1 -0.2 1.6-0.8 3.2-1 4.3 -0.5 1.3-0.8 2.2-0.1 1.2 -1 1.8-1 1.2-1.9 2.6 0 0 0.2-0.6 0.2-0.6 -0.4 0.4-0.9 0.8-1.3 1.4l-0.5 0.7c-0.5 0.3-0.8 0.6-1.1 0.8 -0.3 0.3-0.7 0.5-1 0.7 -0.3 0.2-0.7 0.5-1.1 0.7 -0.4 0.2-0.8 0.4-1.4 0.6 1.4-0.4-0.6 0.3-0.4 0.4 -0.3 0.1-1.7 0.3-1.2 0.2 -1.8 0.4-3.6 0.8-4.6 0.4 0 0-0.7 0.1-0.7 0 -1.2 0-2.1-0.4-3.1-0.8l-0.2 0.1c-0.7-0.2-1.9-0.7-2.4-1.2 -1.6-1-3.6-2.4-4.9-3.9 -0.6-0.8-0.7-1.1-0.9-1.2 -0.2-0.2-0.4-0.3-0.9-1.1 -0.2-0.5-0.5-1.3-0.8-2 -0.2-0.7-0.4-1.4-0.4-1.7 0.4 1.6 0.7 1.7 1.3 3.2 -0.1-0.3 0.2 0.3 0.5 0.8 0.3 0.5 0.6 0.9 0.3 0.2 -0.9-1.3-1.5-3-1.8-4.7 -0.2-0.9-0.2-1.7-0.3-2.5 0-0.8 0-1.6 0.1-2.4 0.1 0.1 0.3-0.8 0.6-1.8 0.1-0.5 0.4-1.1 0.5-1.6 0.2-0.5 0.4-0.9 0.5-1.2L3.2 8.7c0.3-0.5 0.5-0.9 0.8-1.3C4.4 7 4.7 6.4 5.3 5.7c1.4-1.6 3.1-2.8 4.7-3.4 1.2-0.5 2.5-0.9 3.7-1.2 1.2-0.3 2.2-0.5 2.8-0.6 -1.6-0.1-3.2 0.2-4.6 0.6C10.5 1.6 9.3 2.1 8.1 2.6c2-1.1 2.1-1.2 3.7-1.9 0 0-0.2 0-0.5 0.1 -0.2 0.1-0.5 0.1-0.5 0.1l0.7-0.3c-0.4 0 0.5-0.4 0.4-0.4 0-0.1-2.7 1-2.7 1 1.4-0.6 0.6 0 0.2 0.3 0 0-0.3 0.1-0.7 0.3 -0.3 0.2-0.6 0.3-0.6 0.3 0.3-0.1 1.1-0.5 0.2 0.1 -0.2 0.1-0.5 0.3-0.8 0.5C7.5 2.8 7.2 3 6.9 3.1c0 0 0.8-0.9 0.8-0.9 -1.3 1.1-2.7 1.7-3.7 3.2L3.5 5.7c0 0-0.3 0.3-0.5 0.7C2.7 6.8 2.5 7.1 2.5 7.1l0-0.2c0 0-0.3 0.4-0.5 0.9C1.8 8.3 1.5 8.7 1.5 8.7c-0.5 1-0.3 1.2-0.3 1.4 -0.3 0.8-0.4 1.6-0.6 1.9l0.1-1 -0.3 0.9c0.2-0.6-0.1 0.8 0 1 -0.1 0.5-0.1 0.8-0.2 1.1 0 0.2 0 0.4 0 0.5C0.1 14.9 0.1 15 0 15.7c0.1 0.7 0.1 1.4 0.1 2 0.1 0.6 0.2 1 0.3 1 0.3 2.4 1.4 4.9 2.8 6.7l0.7 0.7c0.8 1.1 1.6 1.8 2.4 2.4 0.8 0.6 1.7 1.1 2.9 1.8l-0.2 0c0 0 0.4 0.1 0.7 0.3 0.2 0.1 0.4 0.1 0.5 0.2 0.1 0 0.2 0.1 0.2 0.1 0.5 0.2 0.9 0.4 1.3 0.5 0.4 0.1 0.8 0.2 1.2 0.3 0.4 0.1 0.8 0.1 1.2 0.2 0.2 0 0.5 0.1 0.7 0.1 0.3 0 0.5 0.1 0.8 0.1 0.3 0 0.6 0.1 0.9 0.1 0.3 0 0.5 0 0.8 0 0.5 0 0.9-0.1 1.3-0.2 0.7-0.2 1.2-0.4 1.6-0.6 1.2-0.4 2.7-0.8 3.7-1.3l-0.6 0.4 0.9-0.3c1.4-0.9 1.5-0.8 3.1-2.3 2.2-2 1.4-2 2.1-3 0 0 0.1-0.1 0.3-0.3 0.2-0.2 0.4-0.5 0.6-0.8 0.2-0.3 0.4-0.6 0.5-0.8 0.1-0.2 0.2-0.4 0.2-0.4l-0.1 0c0.2-0.8 0.2-1.1 0.5-1.6 0.1-0.3 0.2-0.6 0.3-1.1 0.2-0.5 0.3-1.2 0.4-2.1l-0.2 0.2c0.3-1.2 0.1-1.8 0-3.4 0-0.2-0.1-0.5-0.1-0.9 0-0.4-0.1-0.8-0.2-1.2 -0.1-0.9-0.5-1.8-0.9-2.4 -0.3-0.7-0.5-1.2-0.9-1.7 -0.3-0.5-0.6-0.9-1-1.3 -0.3-0.4-0.7-0.7-1.1-1.1 -0.2-0.2-0.4-0.4-0.6-0.5 -0.2-0.2-0.4-0.4-0.6-0.6 -1-1.1-2.1-1.4-2.2-1.7l0.2 0.1 -0.3-0.5 -0.2 0.1c-0.7-0.5-1.9-1-2.6-1.4 0 0-0.5-0.1-1-0.1 -0.3 0-0.5 0-0.7-0.1 -0.2 0-0.3 0-0.3 0 0.5 0.1 1 0.2 1.6 0.4l0-0.1c0.5 0.2 1.7 0.6 2.2 0.9l-0.7-0.3c0.7 0.4 0.1 0.2-0.2 0.1 -1.5-0.7-1.2-0.4-2.4-0.6 -0.3-0.1-0.8-0.2-0.6-0.2 -0.4 0-1-0.2-1.6-0.2 -0.6 0-1.1 0-1.1 0 -0.1 0-0.1 0-0.1 0 0.1 0.2 0.4 0.4 0.7 0.6C17.6 1.6 18 1.8 18.5 2.1z" fill="#F00"/></g><g class="a"><path d="M16.5 0.6c-8.4 0-15.2 6.8-15.2 15.2 0 8.4 6.8 15.2 15.2 15.2s15.2-6.8 15.2-15.2C31.7 7.4 24.9 0.6 16.5 0.6L16.5 0.6z"/><path d="M16.5 0.6c-8.4 0-15.2 6.8-15.2 15.2 0 8.4 6.8 15.2 15.2 15.2s15.2-6.8 15.2-15.2C31.7 7.4 24.9 0.6 16.5 0.6L16.5 0.6z" class="c"/><path d="M18.5 2.1c0.7 0 1.4 0.2 2 0.2 1.5 0.6 2.6 1.1 3.7 1.6 1.1 0.6 2.2 1.3 3.2 2.6 0.9 1.2 1.7 2.2 2.2 3.4 0.5 1.2 0.9 2.4 1 3.8 0.2 0.2 0.3 0.7 0.4 1.3 0.1 0.6 0 1.4-0.1 2.1 -0.2 1.6-0.8 3.2-1 4.3 -0.5 1.3-0.8 2.2-0.1 1.2 -1 1.8-1 1.2-1.9 2.6 0 0 0.2-0.6 0.2-0.6 -0.4 0.4-0.9 0.8-1.3 1.4l-0.5 0.7c-0.5 0.3-0.8 0.6-1.1 0.8 -0.3 0.3-0.7 0.5-1 0.7 -0.3 0.2-0.7 0.5-1.1 0.7 -0.4 0.2-0.8 0.4-1.4 0.6 1.4-0.4-0.6 0.3-0.4 0.4 -0.3 0.1-1.7 0.3-1.2 0.2 -1.8 0.4-3.6 0.8-4.6 0.4 0 0-0.7 0.1-0.7 0 -1.2 0-2.1-0.4-3.1-0.8l-0.2 0.1c-0.7-0.2-1.9-0.7-2.4-1.2 -1.6-1-3.6-2.4-4.9-3.9 -0.6-0.8-0.7-1.1-0.9-1.2 -0.2-0.2-0.4-0.3-0.9-1.1 -0.2-0.5-0.5-1.3-0.8-2 -0.2-0.7-0.4-1.4-0.4-1.7 0.4 1.6 0.7 1.7 1.3 3.2 -0.1-0.3 0.2 0.3 0.5 0.8 0.3 0.5 0.6 0.9 0.3 0.2 -0.9-1.3-1.5-3-1.8-4.7 -0.2-0.9-0.2-1.7-0.3-2.5 0-0.8 0-1.6 0.1-2.4 0.1 0.1 0.3-0.8 0.6-1.8 0.1-0.5 0.4-1.1 0.5-1.6 0.2-0.5 0.4-0.9 0.5-1.2L3.2 8.7c0.3-0.5 0.5-0.9 0.8-1.3C4.4 7 4.7 6.4 5.3 5.7c1.4-1.6 3.1-2.8 4.7-3.4 1.2-0.5 2.5-0.9 3.7-1.2 1.2-0.3 2.2-0.5 2.8-0.6 -1.6-0.1-3.2 0.2-4.6 0.6C10.5 1.6 9.3 2.1 8.1 2.6c2-1.1 2.1-1.2 3.7-1.9 0 0-0.2 0-0.5 0.1 -0.2 0.1-0.5 0.1-0.5 0.1l0.7-0.3c-0.4 0 0.5-0.4 0.4-0.4 0-0.1-2.7 1-2.7 1 1.4-0.6 0.6 0 0.2 0.3 0 0-0.3 0.1-0.7 0.3 -0.3 0.2-0.6 0.3-0.6 0.3 0.3-0.1 1.1-0.5 0.2 0.1 -0.2 0.1-0.5 0.3-0.8 0.5C7.5 2.8 7.2 3 6.9 3.1c0 0 0.8-0.9 0.8-0.9 -1.3 1.1-2.7 1.7-3.7 3.2L3.5 5.7c0 0-0.3 0.3-0.5 0.7C2.7 6.8 2.5 7.1 2.5 7.1l0-0.2c0 0-0.3 0.4-0.5 0.9C1.8 8.3 1.5 8.7 1.5 8.7c-0.5 1-0.3 1.2-0.3 1.4 -0.3 0.8-0.4 1.6-0.6 1.9l0.1-1 -0.3 0.9c0.2-0.6-0.1 0.8 0 1 -0.1 0.5-0.1 0.8-0.2 1.1 0 0.2 0 0.4 0 0.5C0.1 14.9 0.1 15 0 15.7c0.1 0.7 0.1 1.4 0.1 2 0.1 0.6 0.2 1 0.3 1 0.3 2.4 1.4 4.9 2.8 6.7l0.7 0.7c0.8 1.1 1.6 1.8 2.4 2.4 0.8 0.6 1.7 1.1 2.9 1.8l-0.2 0c0 0 0.4 0.1 0.7 0.3 0.2 0.1 0.4 0.1 0.5 0.2 0.1 0 0.2 0.1 0.2 0.1 0.5 0.2 0.9 0.4 1.3 0.5 0.4 0.1 0.8 0.2 1.2 0.3 0.4 0.1 0.8 0.1 1.2 0.2 0.2 0 0.5 0.1 0.7 0.1 0.3 0 0.5 0.1 0.8 0.1 0.3 0 0.6 0.1 0.9 0.1 0.3 0 0.5 0 0.8 0 0.5 0 0.9-0.1 1.3-0.2 0.7-0.2 1.2-0.4 1.6-0.6 1.2-0.4 2.7-0.8 3.7-1.3l-0.6 0.4 0.9-0.3c1.4-0.9 1.5-0.8 3.1-2.3 2.2-2 1.4-2 2.1-3 0 0 0.1-0.1 0.3-0.3 0.2-0.2 0.4-0.5 0.6-0.8 0.2-0.3 0.4-0.6 0.5-0.8 0.1-0.2 0.2-0.4 0.2-0.4l-0.1 0c0.2-0.8 0.2-1.1 0.5-1.6 0.1-0.3 0.2-0.6 0.3-1.1 0.2-0.5 0.3-1.2 0.4-2.1l-0.2 0.2c0.3-1.2 0.1-1.8 0-3.4 0-0.2-0.1-0.5-0.1-0.9 0-0.4-0.1-0.8-0.2-1.2 -0.1-0.9-0.5-1.8-0.9-2.4 -0.3-0.7-0.5-1.2-0.9-1.7 -0.3-0.5-0.6-0.9-1-1.3 -0.3-0.4-0.7-0.7-1.1-1.1 -0.2-0.2-0.4-0.4-0.6-0.5 -0.2-0.2-0.4-0.4-0.6-0.6 -1-1.1-2.1-1.4-2.2-1.7l0.2 0.1 -0.3-0.5 -0.2 0.1c-0.7-0.5-1.9-1-2.6-1.4 0 0-0.5-0.1-1-0.1 -0.3 0-0.5 0-0.7-0.1 -0.2 0-0.3 0-0.3 0 0.5 0.1 1 0.2 1.6 0.4l0-0.1c0.5 0.2 1.7 0.6 2.2 0.9l-0.7-0.3c0.7 0.4 0.1 0.2-0.2 0.1 -1.5-0.7-1.2-0.4-2.4-0.6 -0.3-0.1-0.8-0.2-0.6-0.2 -0.4 0-1-0.2-1.6-0.2 -0.6 0-1.1 0-1.1 0 -0.1 0-0.1 0-0.1 0 0.1 0.2 0.4 0.4 0.7 0.6C17.6 1.6 18 1.8 18.5 2.1z" fill="#999"/></g><g class="a"><path d="M18.5 24.5h-2.3 -2.3c0 0 0-1.3 0-2.3 -3.1 0.7-4-1.7-4-1.7 -0.6-1.1-1.1-1.7-1.1-1.7 -1.1-0.7 0-0.6 0-0.6 1.1 0 1.7 1.1 1.7 1.1 1 1.7 2.8 1.4 3.4 1.1 0-0.6 0.2-1.4 0.6-1.7 -2.5-0.3-4.5-1.7-4.5-4.5s0.6-3.4 1.1-4c-0.1-0.3-0.6-1.3 0-2.8 0 0 1.1 0 2.2 1.7 0.6-0.6 2.3-0.6 2.8-0.6 0.6 0 2.3 0 2.8 0.6 1.1-1.7 2.2-1.7 2.2-1.7 0.6 1.5 0.1 2.6 0 2.8 0.6 0.6 1.1 1.1 1.1 4s-2.1 4.3-4.5 4.5c0.3 0.3 0.6 1.3 0.6 1.7L18.5 24.5 18.5 24.5z" class="d"/></g><g class="a"><path d="M16 0C7.2 0 0 7.2 0 16c0 8.8 7.2 16 16 16s16-7.2 16-16C32 7.2 24.8 0 16 0L16 0z" fill="#DDD"/><path d="M16 1.6C8.1 1.6 1.6 8.1 1.6 16c0 7.9 6.4 14.4 14.4 14.4S30.4 23.9 30.4 16C30.4 8.1 23.9 1.6 16 1.6L16 1.6z"/><path d="M16 1.6L16 1.6C8.1 1.6 1.6 8.1 1.6 16c0 7.9 6.4 14.4 14.4 14.4V1.6z" class="b"/></g><g class="a"><path d="M18.5 24.5h-2.3 -2.3c0 0 0-1.3 0-2.3 -3.1 0.7-4-1.7-4-1.7 -0.6-1.1-1.1-1.7-1.1-1.7 -1.1-0.7 0-0.6 0-0.6 1.1 0 1.7 1.1 1.7 1.1 1 1.7 2.8 1.4 3.4 1.1 0-0.6 0.2-1.4 0.6-1.7 -2.5-0.3-4.5-1.7-4.5-4.5s0.6-3.4 1.1-4c-0.1-0.3-0.6-1.3 0-2.8 0 0 1.1 0 2.2 1.7 0.6-0.6 2.3-0.6 2.8-0.6 0.6 0 2.3 0 2.8 0.6 1.1-1.7 2.2-1.7 2.2-1.7 0.6 1.5 0.1 2.6 0 2.8 0.6 0.6 1.1 1.1 1.1 4s-2.1 4.3-4.5 4.5c0.3 0.3 0.6 1.3 0.6 1.7L18.5 24.5 18.5 24.5z" class="d"/></g><g class="a"><linearGradient gradientUnits="userSpaceOnUse" x1="15.4" y1="24.5" x2="15.4" y2="7.5"><stop offset="0" class="e"/><stop offset="1" class="f"/></linearGradient><path d="M18.5 24.5h-2.3 -2.3c0 0 0-1.3 0-2.3 -3.1 0.7-4-1.7-4-1.7 -0.6-1.1-1.1-1.7-1.1-1.7 -1.1-0.7 0-0.6 0-0.6 1.1 0 1.7 1.1 1.7 1.1 1 1.7 2.8 1.4 3.4 1.1 0-0.6 0.2-1.4 0.6-1.7 -2.5-0.3-4.5-1.7-4.5-4.5s0.6-3.4 1.1-4c-0.1-0.3-0.6-1.3 0-2.8 0 0 1.1 0 2.2 1.7 0.6-0.6 2.3-0.6 2.8-0.6 0.6 0 2.3 0 2.8 0.6 1.1-1.7 2.2-1.7 2.2-1.7 0.6 1.5 0.1 2.6 0 2.8 0.6 0.6 1.1 1.1 1.1 4s-2.1 4.3-4.5 4.5c0.3 0.3 0.6 1.3 0.6 1.7L18.5 24.5 18.5 24.5z" fill="url(#Cat_4_)"/></g><linearGradient gradientUnits="userSpaceOnUse" x1="16" y1="32" x2="16"><stop offset="0" class="e"/><stop offset="1" class="f"/></linearGradient><path d="M21.8 32h-4.3 -4.3c0 0 0-2.5 0-4.3 -5.8 1.3-7.5-3.2-7.5-3.2 -1.1-2.1-2.1-3.2-2.1-3.2 -2.1-1.3 0-1.1 0-1.1 2.1 0 3.2 2.1 3.2 2.1 1.9 3.2 5.2 2.7 6.4 2.1 0-1.1 0.5-2.7 1.1-3.2 -4.7-0.5-8.5-3.2-8.5-8.5s1.1-6.4 2.1-7.5C7.7 4.8 6.8 2.9 8 0c0 0 2.1 0 4.2 3.2 1.1-1.1 4.3-1.1 5.3-1.1 1.1 0 4.3 0 5.3 1.1C25 0 27.1 0 27.1 0c1.1 2.9 0.2 4.8 0 5.3 1.1 1.1 2.1 2.1 2.1 7.5s-3.9 8-8.5 8.5c0.6 0.5 1.1 2.4 1.1 3.2V32H21.8z" fill="url(#Cat_5_)"/></svg>